# MagicaVoxel @ Ephtracy

# material
mtllib Billy-18.mtl
usemtl palette

# normals
vn -1 0 0
vn 1 0 0
vn 0 0 1
vn 0 0 -1
vn 0 -1 0
vn 0 1 0

# texcoords
vt 0.404297 0.5
vt 0.931641 0.5
vt 0.962891 0.5
vt 0.994141 0.5

# verts
v -7.5 0 7
v -7.5 0 -7
v -7.5 14 7
v -7.5 14 -7
v -5.5 4 6
v -5.5 4 5
v -5.5 5 6
v -5.5 5 5
v -2.5 8 7
v -2.5 8 5
v -2.5 9 7
v -2.5 9 6
v -2.5 10 6
v -2.5 10 5
v -2.5 11 6
v -2.5 11 5
v 2.5 4 6
v 2.5 4 5
v 2.5 5 6
v 2.5 5 5
v 5.5 8 7
v 5.5 8 5
v 5.5 9 7
v 5.5 9 6
v 5.5 10 6
v 5.5 10 5
v 5.5 11 6
v 5.5 11 5
v 6.5 2 6
v 6.5 2 5
v 6.5 5 6
v 6.5 5 5
v -6.5 2 6
v -6.5 2 5
v -6.5 5 6
v -6.5 5 5
v -5.5 8 7
v -5.5 8 5
v -5.5 9 7
v -5.5 9 6
v -5.5 11 6
v -5.5 11 5
v -2.5 4 6
v -2.5 4 5
v -2.5 5 6
v -2.5 5 5
v 2.5 8 7
v 2.5 8 5
v 2.5 9 7
v 2.5 9 6
v 2.5 10 5
v 2.5 11 6
v 2.5 11 5
v 5.5 4 6
v 5.5 4 5
v 5.5 5 6
v 5.5 5 5
v 7.5 0 7
v 7.5 0 -7
v 7.5 14 7
v 7.5 14 -7
v -7.5 0 7
v -7.5 14 7
v -5.5 8 7
v -5.5 9 7
v -5.5 11 7
v -5.5 12 7
v -2.5 8 7
v -2.5 9 7
v -2.5 10 7
v -2.5 11 7
v -2.5 12 7
v -1.5 10 7
v -1.5 11 7
v 2.5 8 7
v 2.5 9 7
v 2.5 11 7
v 2.5 12 7
v 5.5 8 7
v 5.5 9 7
v 5.5 10 7
v 5.5 11 7
v 5.5 12 7
v 6.5 10 7
v 6.5 11 7
v 7.5 0 7
v 7.5 14 7
v -6.5 2 5
v -6.5 5 5
v -5.5 4 5
v -5.5 5 5
v -5.5 8 5
v -5.5 11 5
v -4.5 8 5
v -4.5 10 5
v -2.5 4 5
v -2.5 5 5
v -2.5 8 5
v -2.5 10 5
v -2.5 11 5
v 2.5 4 5
v 2.5 5 5
v 2.5 8 5
v 2.5 10 5
v 2.5 11 5
v 4.5 8 5
v 4.5 10 5
v 5.5 4 5
v 5.5 5 5
v 5.5 8 5
v 5.5 10 5
v 5.5 11 5
v 6.5 2 5
v 6.5 5 5
v -6.5 2 6
v -6.5 5 6
v -5.5 4 6
v -5.5 5 6
v -5.5 9 6
v -5.5 11 6
v -2.5 4 6
v -2.5 5 6
v -2.5 9 6
v -2.5 10 6
v -2.5 11 6
v 2.5 4 6
v 2.5 5 6
v 2.5 9 6
v 2.5 11 6
v 5.5 4 6
v 5.5 5 6
v 5.5 9 6
v 5.5 10 6
v 5.5 11 6
v 6.5 2 6
v 6.5 5 6
v -7.5 0 -7
v -7.5 14 -7
v 7.5 0 -7
v 7.5 14 -7
v -7.5 0 7
v 7.5 0 7
v -7.5 0 -7
v 7.5 0 -7
v -5.5 4 6
v -2.5 4 6
v 2.5 4 6
v 5.5 4 6
v -5.5 4 5
v -2.5 4 5
v 2.5 4 5
v 5.5 4 5
v -6.5 5 6
v -5.5 5 6
v -2.5 5 6
v 2.5 5 6
v 5.5 5 6
v 6.5 5 6
v -6.5 5 5
v -5.5 5 5
v -2.5 5 5
v 2.5 5 5
v 5.5 5 5
v 6.5 5 5
v -5.5 9 7
v -2.5 9 7
v 2.5 9 7
v 5.5 9 7
v -5.5 9 6
v -2.5 9 6
v 2.5 9 6
v 5.5 9 6
v -5.5 11 6
v -2.5 11 6
v 2.5 11 6
v 5.5 11 6
v -5.5 11 5
v -2.5 11 5
v 2.5 11 5
v 5.5 11 5
v -6.5 2 6
v 6.5 2 6
v -6.5 2 5
v 6.5 2 5
v -5.5 8 7
v -2.5 8 7
v 2.5 8 7
v 5.5 8 7
v -5.5 8 5
v -4.5 8 5
v -2.5 8 5
v 2.5 8 5
v 4.5 8 5
v 5.5 8 5
v -7.5 14 7
v 7.5 14 7
v -7.5 14 -7
v 7.5 14 -7

# faces
f 3/1/1 2/1/1 1/1/1
f 4/1/1 2/1/1 3/1/1
f 7/1/1 6/1/1 5/1/1
f 8/1/1 6/1/1 7/1/1
f 11/1/1 10/1/1 9/1/1
f 12/1/1 10/1/1 11/1/1
f 13/1/1 10/1/1 12/1/1
f 14/1/1 10/1/1 13/1/1
f 15/4/1 14/4/1 13/4/1
f 16/4/1 14/4/1 15/4/1
f 19/1/1 18/1/1 17/1/1
f 20/1/1 18/1/1 19/1/1
f 23/1/1 22/1/1 21/1/1
f 24/1/1 22/1/1 23/1/1
f 25/1/1 22/1/1 24/1/1
f 26/1/1 22/1/1 25/1/1
f 27/4/1 26/4/1 25/4/1
f 28/4/1 26/4/1 27/4/1
f 31/1/1 30/1/1 29/1/1
f 32/1/1 30/1/1 31/1/1
f 33/1/2 34/1/2 35/1/2
f 35/1/2 34/1/2 36/1/2
f 37/1/2 38/1/2 39/1/2
f 39/1/2 38/1/2 40/1/2
f 40/1/2 38/1/2 41/1/2
f 41/1/2 38/1/2 42/1/2
f 43/1/2 44/1/2 45/1/2
f 45/1/2 44/1/2 46/1/2
f 47/1/2 48/1/2 49/1/2
f 49/1/2 48/1/2 50/1/2
f 50/1/2 48/1/2 51/1/2
f 50/1/2 51/1/2 52/1/2
f 52/1/2 51/1/2 53/1/2
f 54/1/2 55/1/2 56/1/2
f 56/1/2 55/1/2 57/1/2
f 58/1/2 59/1/2 60/1/2
f 60/1/2 59/1/2 61/1/2
f 64/1/3 63/1/3 62/1/3
f 65/1/3 63/1/3 64/1/3
f 66/1/3 63/1/3 65/1/3
f 67/1/3 63/1/3 66/1/3
f 68/1/3 64/1/3 62/1/3
f 69/1/3 66/1/3 65/1/3
f 70/1/3 66/1/3 69/1/3
f 71/4/3 67/4/3 66/4/3
f 71/1/3 66/1/3 70/1/3
f 72/1/3 63/1/3 67/1/3
f 72/4/3 67/4/3 71/4/3
f 73/4/3 71/4/3 70/4/3
f 73/1/3 70/1/3 69/1/3
f 73/1/3 69/1/3 68/1/3
f 74/1/3 72/1/3 71/1/3
f 74/4/3 71/4/3 73/4/3
f 75/1/3 73/1/3 68/1/3
f 75/1/3 68/1/3 62/1/3
f 75/1/3 74/1/3 73/1/3
f 76/1/3 74/1/3 75/1/3
f 77/1/3 72/1/3 74/1/3
f 77/1/3 74/1/3 76/1/3
f 78/1/3 63/1/3 72/1/3
f 78/1/3 72/1/3 77/1/3
f 79/1/3 75/1/3 62/1/3
f 80/1/3 77/1/3 76/1/3
f 81/1/3 77/1/3 80/1/3
f 82/4/3 78/4/3 77/4/3
f 82/1/3 77/1/3 81/1/3
f 83/1/3 63/1/3 78/1/3
f 83/4/3 78/4/3 82/4/3
f 84/4/3 82/4/3 81/4/3
f 84/1/3 81/1/3 80/1/3
f 84/1/3 80/1/3 79/1/3
f 85/1/3 83/1/3 82/1/3
f 85/4/3 82/4/3 84/4/3
f 86/1/3 79/1/3 62/1/3
f 86/1/3 84/1/3 79/1/3
f 86/1/3 85/1/3 84/1/3
f 87/1/3 83/1/3 85/1/3
f 87/1/3 85/1/3 86/1/3
f 87/1/3 63/1/3 83/1/3
f 90/4/3 89/4/3 88/4/3
f 91/4/3 89/4/3 90/4/3
f 94/3/3 93/3/3 92/3/3
f 95/3/3 93/3/3 94/3/3
f 96/4/3 90/4/3 88/4/3
f 98/2/3 95/2/3 94/2/3
f 99/3/3 93/3/3 95/3/3
f 99/2/3 95/2/3 98/2/3
f 100/3/3 93/3/3 99/3/3
f 101/4/3 97/4/3 96/4/3
f 101/4/3 96/4/3 88/4/3
f 102/4/3 97/4/3 101/4/3
f 106/2/3 104/2/3 103/2/3
f 107/3/3 105/3/3 104/3/3
f 107/2/3 104/2/3 106/2/3
f 108/4/3 101/4/3 88/4/3
f 110/3/3 107/3/3 106/3/3
f 111/3/3 105/3/3 107/3/3
f 111/3/3 107/3/3 110/3/3
f 112/3/3 105/3/3 111/3/3
f 113/4/3 109/4/3 108/4/3
f 113/4/3 108/4/3 88/4/3
f 114/4/3 109/4/3 113/4/3
f 115/1/4 116/1/4 117/1/4
f 117/1/4 116/1/4 118/1/4
f 115/1/4 117/1/4 121/1/4
f 119/1/4 120/1/4 123/1/4
f 123/1/4 120/1/4 124/1/4
f 124/1/4 120/1/4 125/1/4
f 121/1/4 122/1/4 126/1/4
f 115/1/4 121/1/4 126/1/4
f 126/1/4 122/1/4 127/1/4
f 115/1/4 126/1/4 130/1/4
f 128/1/4 129/1/4 132/1/4
f 132/1/4 129/1/4 133/1/4
f 133/1/4 129/1/4 134/1/4
f 130/1/4 131/1/4 135/1/4
f 115/1/4 130/1/4 135/1/4
f 135/1/4 131/1/4 136/1/4
f 137/1/4 138/1/4 139/1/4
f 139/1/4 138/1/4 140/1/4
f 143/1/5 142/1/5 141/1/5
f 144/1/5 142/1/5 143/1/5
f 149/1/5 146/1/5 145/1/5
f 150/1/5 146/1/5 149/1/5
f 151/1/5 148/1/5 147/1/5
f 152/1/5 148/1/5 151/1/5
f 159/1/5 154/1/5 153/1/5
f 160/1/5 154/1/5 159/1/5
f 161/1/5 156/1/5 155/1/5
f 162/1/5 156/1/5 161/1/5
f 163/1/5 158/1/5 157/1/5
f 164/1/5 158/1/5 163/1/5
f 169/1/5 166/1/5 165/1/5
f 170/1/5 166/1/5 169/1/5
f 171/1/5 168/1/5 167/1/5
f 172/1/5 168/1/5 171/1/5
f 177/4/5 174/4/5 173/4/5
f 178/4/5 174/4/5 177/4/5
f 179/4/5 176/4/5 175/4/5
f 180/4/5 176/4/5 179/4/5
f 181/1/6 182/1/6 183/1/6
f 183/1/6 182/1/6 184/1/6
f 185/1/6 186/1/6 189/1/6
f 189/1/6 186/1/6 190/1/6
f 190/1/6 186/1/6 191/1/6
f 187/1/6 188/1/6 192/1/6
f 192/1/6 188/1/6 193/1/6
f 193/1/6 188/1/6 194/1/6
f 195/1/6 196/1/6 197/1/6
f 197/1/6 196/1/6 198/1/6
