# MagicaVoxel @ Ephtracy

# material
mtllib Billy-16.mtl
usemtl palette

# normals
vn -1 0 0
vn 1 0 0
vn 0 0 1
vn 0 0 -1
vn 0 -1 0
vn 0 1 0

# texcoords
vt 0.404297 0.5
vt 0.931641 0.5
vt 0.962891 0.5
vt 0.994141 0.5

# verts
v -7.5 0 7
v -7.5 0 -7
v -7.5 14 7
v -7.5 14 -7
v -5.5 4 6
v -5.5 4 5
v -5.5 5 6
v -5.5 5 5
v -2.5 8 7
v -2.5 8 5
v -2.5 10 7
v -2.5 10 5
v -2.5 11 7
v -2.5 11 5
v 2.5 4 6
v 2.5 4 5
v 2.5 5 6
v 2.5 5 5
v 5.5 8 7
v 5.5 8 5
v 5.5 10 7
v 5.5 10 5
v 5.5 11 7
v 5.5 11 5
v 6.5 2 6
v 6.5 2 5
v 6.5 5 6
v 6.5 5 5
v -6.5 2 6
v -6.5 2 5
v -6.5 5 6
v -6.5 5 5
v -5.5 8 7
v -5.5 8 5
v -5.5 11 7
v -5.5 11 5
v -2.5 4 6
v -2.5 4 5
v -2.5 5 6
v -2.5 5 5
v 2.5 8 7
v 2.5 8 5
v 2.5 10 5
v 2.5 11 7
v 2.5 11 5
v 5.5 4 6
v 5.5 4 5
v 5.5 5 6
v 5.5 5 5
v 7.5 0 7
v 7.5 0 -7
v 7.5 14 7
v 7.5 14 -7
v -7.5 0 7
v -7.5 14 7
v -5.5 8 7
v -5.5 11 7
v -5.5 12 7
v -2.5 8 7
v -2.5 10 7
v -2.5 11 7
v -2.5 12 7
v -1.5 10 7
v -1.5 11 7
v 2.5 8 7
v 2.5 11 7
v 2.5 12 7
v 5.5 8 7
v 5.5 10 7
v 5.5 11 7
v 5.5 12 7
v 6.5 10 7
v 6.5 11 7
v 7.5 0 7
v 7.5 14 7
v -6.5 2 5
v -6.5 5 5
v -5.5 4 5
v -5.5 5 5
v -5.5 8 5
v -5.5 11 5
v -4.5 8 5
v -4.5 10 5
v -2.5 4 5
v -2.5 5 5
v -2.5 8 5
v -2.5 10 5
v -2.5 11 5
v 2.5 4 5
v 2.5 5 5
v 2.5 8 5
v 2.5 10 5
v 2.5 11 5
v 4.5 8 5
v 4.5 10 5
v 5.5 4 5
v 5.5 5 5
v 5.5 8 5
v 5.5 10 5
v 5.5 11 5
v 6.5 2 5
v 6.5 5 5
v -6.5 2 6
v -6.5 5 6
v -5.5 4 6
v -5.5 5 6
v -2.5 4 6
v -2.5 5 6
v 2.5 4 6
v 2.5 5 6
v 5.5 4 6
v 5.5 5 6
v 6.5 2 6
v 6.5 5 6
v -7.5 0 -7
v -7.5 14 -7
v 7.5 0 -7
v 7.5 14 -7
v -7.5 0 7
v 7.5 0 7
v -7.5 0 -7
v 7.5 0 -7
v -5.5 4 6
v -2.5 4 6
v 2.5 4 6
v 5.5 4 6
v -5.5 4 5
v -2.5 4 5
v 2.5 4 5
v 5.5 4 5
v -6.5 5 6
v -5.5 5 6
v -2.5 5 6
v 2.5 5 6
v 5.5 5 6
v 6.5 5 6
v -6.5 5 5
v -5.5 5 5
v -2.5 5 5
v 2.5 5 5
v 5.5 5 5
v 6.5 5 5
v -5.5 11 7
v -2.5 11 7
v 2.5 11 7
v 5.5 11 7
v -5.5 11 5
v -2.5 11 5
v 2.5 11 5
v 5.5 11 5
v -6.5 2 6
v 6.5 2 6
v -6.5 2 5
v 6.5 2 5
v -5.5 8 7
v -2.5 8 7
v 2.5 8 7
v 5.5 8 7
v -5.5 8 5
v -4.5 8 5
v -2.5 8 5
v 2.5 8 5
v 4.5 8 5
v 5.5 8 5
v -7.5 14 7
v 7.5 14 7
v -7.5 14 -7
v 7.5 14 -7

# faces
f 3/1/1 2/1/1 1/1/1
f 4/1/1 2/1/1 3/1/1
f 7/1/1 6/1/1 5/1/1
f 8/1/1 6/1/1 7/1/1
f 11/1/1 10/1/1 9/1/1
f 12/1/1 10/1/1 11/1/1
f 13/4/1 12/4/1 11/4/1
f 14/4/1 12/4/1 13/4/1
f 17/1/1 16/1/1 15/1/1
f 18/1/1 16/1/1 17/1/1
f 21/1/1 20/1/1 19/1/1
f 22/1/1 20/1/1 21/1/1
f 23/4/1 22/4/1 21/4/1
f 24/4/1 22/4/1 23/4/1
f 27/1/1 26/1/1 25/1/1
f 28/1/1 26/1/1 27/1/1
f 29/1/2 30/1/2 31/1/2
f 31/1/2 30/1/2 32/1/2
f 33/1/2 34/1/2 35/1/2
f 35/1/2 34/1/2 36/1/2
f 37/1/2 38/1/2 39/1/2
f 39/1/2 38/1/2 40/1/2
f 41/1/2 42/1/2 43/1/2
f 41/1/2 43/1/2 44/1/2
f 44/1/2 43/1/2 45/1/2
f 46/1/2 47/1/2 48/1/2
f 48/1/2 47/1/2 49/1/2
f 50/1/2 51/1/2 52/1/2
f 52/1/2 51/1/2 53/1/2
f 56/1/3 55/1/3 54/1/3
f 57/1/3 55/1/3 56/1/3
f 58/1/3 55/1/3 57/1/3
f 59/1/3 56/1/3 54/1/3
f 61/4/3 58/4/3 57/4/3
f 62/1/3 55/1/3 58/1/3
f 62/4/3 58/4/3 61/4/3
f 63/4/3 61/4/3 60/4/3
f 63/1/3 60/1/3 59/1/3
f 64/1/3 62/1/3 61/1/3
f 64/4/3 61/4/3 63/4/3
f 65/1/3 63/1/3 59/1/3
f 65/1/3 59/1/3 54/1/3
f 65/1/3 64/1/3 63/1/3
f 66/1/3 62/1/3 64/1/3
f 66/1/3 64/1/3 65/1/3
f 67/1/3 55/1/3 62/1/3
f 67/1/3 62/1/3 66/1/3
f 68/1/3 65/1/3 54/1/3
f 70/4/3 67/4/3 66/4/3
f 71/1/3 55/1/3 67/1/3
f 71/4/3 67/4/3 70/4/3
f 72/4/3 70/4/3 69/4/3
f 72/1/3 69/1/3 68/1/3
f 73/1/3 71/1/3 70/1/3
f 73/4/3 70/4/3 72/4/3
f 74/1/3 72/1/3 68/1/3
f 74/1/3 68/1/3 54/1/3
f 74/1/3 73/1/3 72/1/3
f 75/1/3 55/1/3 71/1/3
f 75/1/3 73/1/3 74/1/3
f 75/1/3 71/1/3 73/1/3
f 78/4/3 77/4/3 76/4/3
f 79/4/3 77/4/3 78/4/3
f 82/3/3 81/3/3 80/3/3
f 83/3/3 81/3/3 82/3/3
f 84/4/3 78/4/3 76/4/3
f 86/2/3 83/2/3 82/2/3
f 87/3/3 81/3/3 83/3/3
f 87/2/3 83/2/3 86/2/3
f 88/3/3 81/3/3 87/3/3
f 89/4/3 85/4/3 84/4/3
f 89/4/3 84/4/3 76/4/3
f 90/4/3 85/4/3 89/4/3
f 94/2/3 92/2/3 91/2/3
f 95/3/3 93/3/3 92/3/3
f 95/2/3 92/2/3 94/2/3
f 96/4/3 89/4/3 76/4/3
f 98/3/3 95/3/3 94/3/3
f 99/3/3 93/3/3 95/3/3
f 99/3/3 95/3/3 98/3/3
f 100/3/3 93/3/3 99/3/3
f 101/4/3 97/4/3 96/4/3
f 101/4/3 96/4/3 76/4/3
f 102/4/3 97/4/3 101/4/3
f 103/1/4 104/1/4 105/1/4
f 105/1/4 104/1/4 106/1/4
f 103/1/4 105/1/4 107/1/4
f 103/1/4 107/1/4 109/1/4
f 107/1/4 108/1/4 109/1/4
f 109/1/4 108/1/4 110/1/4
f 103/1/4 109/1/4 111/1/4
f 103/1/4 111/1/4 113/1/4
f 111/1/4 112/1/4 113/1/4
f 113/1/4 112/1/4 114/1/4
f 115/1/4 116/1/4 117/1/4
f 117/1/4 116/1/4 118/1/4
f 121/1/5 120/1/5 119/1/5
f 122/1/5 120/1/5 121/1/5
f 127/1/5 124/1/5 123/1/5
f 128/1/5 124/1/5 127/1/5
f 129/1/5 126/1/5 125/1/5
f 130/1/5 126/1/5 129/1/5
f 137/1/5 132/1/5 131/1/5
f 138/1/5 132/1/5 137/1/5
f 139/1/5 134/1/5 133/1/5
f 140/1/5 134/1/5 139/1/5
f 141/1/5 136/1/5 135/1/5
f 142/1/5 136/1/5 141/1/5
f 147/4/5 144/4/5 143/4/5
f 148/4/5 144/4/5 147/4/5
f 149/4/5 146/4/5 145/4/5
f 150/4/5 146/4/5 149/4/5
f 151/1/6 152/1/6 153/1/6
f 153/1/6 152/1/6 154/1/6
f 155/1/6 156/1/6 159/1/6
f 159/1/6 156/1/6 160/1/6
f 160/1/6 156/1/6 161/1/6
f 157/1/6 158/1/6 162/1/6
f 162/1/6 158/1/6 163/1/6
f 163/1/6 158/1/6 164/1/6
f 165/1/6 166/1/6 167/1/6
f 167/1/6 166/1/6 168/1/6
