# MagicaVoxel @ Ephtracy

# material
mtllib Billy-24.mtl
usemtl palette

# normals
vn -1 0 0
vn 1 0 0
vn 0 0 1
vn 0 0 -1
vn 0 -1 0
vn 0 1 0

# texcoords
vt 0.404297 0.5
vt 0.931641 0.5
vt 0.962891 0.5
vt 0.994141 0.5

# verts
v -7.5 0 7
v -7.5 0 -7
v -7.5 14 7
v -7.5 14 -7
v -4.5 3 6
v -4.5 3 5
v -4.5 5 6
v -4.5 5 5
v -2.5 8 7
v -2.5 8 5
v -2.5 9 7
v -2.5 9 6
v -2.5 10 6
v -2.5 10 5
v -2.5 11 6
v -2.5 11 5
v 1.5 2 7
v 1.5 2 6
v 1.5 3 7
v 1.5 3 6
v 1.5 5 7
v 1.5 5 5
v 1.5 6 7
v 1.5 6 5
v 2.5 3 7
v 2.5 3 6
v 2.5 3 5
v 2.5 5 7
v 2.5 5 5
v 5.5 8 7
v 5.5 8 5
v 5.5 9 7
v 5.5 9 6
v 5.5 10 6
v 5.5 10 5
v 5.5 11 6
v 5.5 11 5
v 6.5 2 6
v 6.5 2 5
v 6.5 5 6
v 6.5 5 5
v -6.5 2 6
v -6.5 2 5
v -6.5 3 6
v -6.5 3 5
v -6.5 4 6
v -6.5 4 5
v -6.5 5 6
v -6.5 5 5
v -5.5 3 6
v -5.5 3 5
v -5.5 4 6
v -5.5 4 5
v -5.5 8 7
v -5.5 8 5
v -5.5 9 7
v -5.5 9 6
v -5.5 11 6
v -5.5 11 5
v -2.5 3 7
v -2.5 3 6
v -2.5 3 5
v -2.5 5 7
v -2.5 5 5
v -1.5 2 7
v -1.5 2 6
v -1.5 3 7
v -1.5 3 6
v -1.5 5 7
v -1.5 5 5
v -1.5 6 7
v -1.5 6 5
v 2.5 8 7
v 2.5 8 5
v 2.5 9 7
v 2.5 9 6
v 2.5 10 5
v 2.5 11 6
v 2.5 11 5
v 4.5 3 6
v 4.5 3 5
v 4.5 5 6
v 4.5 5 5
v 7.5 0 7
v 7.5 0 -7
v 7.5 14 7
v 7.5 14 -7
v -7.5 0 7
v -7.5 14 7
v -5.5 8 7
v -5.5 9 7
v -5.5 11 7
v -5.5 12 7
v -2.5 3 7
v -2.5 5 7
v -2.5 8 7
v -2.5 9 7
v -2.5 10 7
v -2.5 11 7
v -2.5 12 7
v -1.5 2 7
v -1.5 3 7
v -1.5 5 7
v -1.5 6 7
v -1.5 10 7
v -1.5 11 7
v 1.5 2 7
v 1.5 3 7
v 1.5 5 7
v 1.5 6 7
v 2.5 3 7
v 2.5 5 7
v 2.5 8 7
v 2.5 9 7
v 2.5 11 7
v 2.5 12 7
v 5.5 8 7
v 5.5 9 7
v 5.5 10 7
v 5.5 11 7
v 5.5 12 7
v 6.5 10 7
v 6.5 11 7
v 7.5 0 7
v 7.5 14 7
v -6.5 2 5
v -6.5 3 5
v -6.5 4 5
v -6.5 5 5
v -5.5 3 5
v -5.5 4 5
v -5.5 8 5
v -5.5 11 5
v -4.5 3 5
v -4.5 5 5
v -4.5 8 5
v -4.5 10 5
v -2.5 3 5
v -2.5 5 5
v -2.5 8 5
v -2.5 10 5
v -2.5 11 5
v -1.5 5 5
v -1.5 6 5
v 1.5 5 5
v 1.5 6 5
v 2.5 3 5
v 2.5 5 5
v 2.5 8 5
v 2.5 10 5
v 2.5 11 5
v 4.5 3 5
v 4.5 5 5
v 4.5 8 5
v 4.5 10 5
v 5.5 8 5
v 5.5 10 5
v 5.5 11 5
v 6.5 2 5
v 6.5 5 5
v -6.5 2 6
v -6.5 3 6
v -6.5 4 6
v -6.5 5 6
v -5.5 3 6
v -5.5 4 6
v -5.5 9 6
v -5.5 11 6
v -4.5 3 6
v -4.5 5 6
v -2.5 3 6
v -2.5 9 6
v -2.5 10 6
v -2.5 11 6
v -1.5 2 6
v -1.5 3 6
v 1.5 2 6
v 1.5 3 6
v 2.5 3 6
v 2.5 9 6
v 2.5 11 6
v 4.5 3 6
v 4.5 5 6
v 5.5 9 6
v 5.5 10 6
v 5.5 11 6
v 6.5 2 6
v 6.5 5 6
v -7.5 0 -7
v -7.5 14 -7
v 7.5 0 -7
v 7.5 14 -7
v -7.5 0 7
v 7.5 0 7
v -7.5 0 -7
v 7.5 0 -7
v -6.5 3 6
v -5.5 3 6
v -4.5 3 6
v -2.5 3 6
v 2.5 3 6
v 4.5 3 6
v -6.5 3 5
v -5.5 3 5
v -4.5 3 5
v -2.5 3 5
v 2.5 3 5
v 4.5 3 5
v -2.5 5 7
v -1.5 5 7
v 1.5 5 7
v 2.5 5 7
v -6.5 5 6
v -4.5 5 6
v 4.5 5 6
v 6.5 5 6
v -6.5 5 5
v -4.5 5 5
v -2.5 5 5
v -1.5 5 5
v 1.5 5 5
v 2.5 5 5
v 4.5 5 5
v 6.5 5 5
v -1.5 6 7
v 1.5 6 7
v -1.5 6 5
v 1.5 6 5
v -5.5 9 7
v -2.5 9 7
v 2.5 9 7
v 5.5 9 7
v -5.5 9 6
v -2.5 9 6
v 2.5 9 6
v 5.5 9 6
v -5.5 11 6
v -2.5 11 6
v 2.5 11 6
v 5.5 11 6
v -5.5 11 5
v -2.5 11 5
v 2.5 11 5
v 5.5 11 5
v -1.5 2 7
v 1.5 2 7
v -6.5 2 6
v -1.5 2 6
v 1.5 2 6
v 6.5 2 6
v -6.5 2 5
v 6.5 2 5
v -2.5 3 7
v -1.5 3 7
v 1.5 3 7
v 2.5 3 7
v -2.5 3 6
v -1.5 3 6
v 1.5 3 6
v 2.5 3 6
v -6.5 4 6
v -5.5 4 6
v -6.5 4 5
v -5.5 4 5
v -5.5 8 7
v -2.5 8 7
v 2.5 8 7
v 5.5 8 7
v -5.5 8 5
v -4.5 8 5
v -2.5 8 5
v 2.5 8 5
v 4.5 8 5
v 5.5 8 5
v -7.5 14 7
v 7.5 14 7
v -7.5 14 -7
v 7.5 14 -7

# faces
f 3/1/1 2/1/1 1/1/1
f 4/1/1 2/1/1 3/1/1
f 7/1/1 6/1/1 5/1/1
f 8/1/1 6/1/1 7/1/1
f 11/1/1 10/1/1 9/1/1
f 12/1/1 10/1/1 11/1/1
f 13/1/1 10/1/1 12/1/1
f 14/1/1 10/1/1 13/1/1
f 15/4/1 14/4/1 13/4/1
f 16/4/1 14/4/1 15/4/1
f 19/1/1 18/1/1 17/1/1
f 20/1/1 18/1/1 19/1/1
f 23/1/1 22/1/1 21/1/1
f 24/1/1 22/1/1 23/1/1
f 28/1/1 26/1/1 25/1/1
f 28/1/1 27/1/1 26/1/1
f 29/1/1 27/1/1 28/1/1
f 32/1/1 31/1/1 30/1/1
f 33/1/1 31/1/1 32/1/1
f 34/1/1 31/1/1 33/1/1
f 35/1/1 31/1/1 34/1/1
f 36/4/1 35/4/1 34/4/1
f 37/4/1 35/4/1 36/4/1
f 40/1/1 39/1/1 38/1/1
f 41/1/1 39/1/1 40/1/1
f 42/1/2 43/1/2 44/1/2
f 44/1/2 43/1/2 45/1/2
f 46/1/2 47/1/2 48/1/2
f 48/1/2 47/1/2 49/1/2
f 50/1/2 51/1/2 52/1/2
f 52/1/2 51/1/2 53/1/2
f 54/1/2 55/1/2 56/1/2
f 56/1/2 55/1/2 57/1/2
f 57/1/2 55/1/2 58/1/2
f 58/1/2 55/1/2 59/1/2
f 60/1/2 61/1/2 63/1/2
f 61/1/2 62/1/2 63/1/2
f 63/1/2 62/1/2 64/1/2
f 65/1/2 66/1/2 67/1/2
f 67/1/2 66/1/2 68/1/2
f 69/1/2 70/1/2 71/1/2
f 71/1/2 70/1/2 72/1/2
f 73/1/2 74/1/2 75/1/2
f 75/1/2 74/1/2 76/1/2
f 76/1/2 74/1/2 77/1/2
f 76/1/2 77/1/2 78/1/2
f 78/1/2 77/1/2 79/1/2
f 80/1/2 81/1/2 82/1/2
f 82/1/2 81/1/2 83/1/2
f 84/1/2 85/1/2 86/1/2
f 86/1/2 85/1/2 87/1/2
f 90/1/3 89/1/3 88/1/3
f 91/1/3 89/1/3 90/1/3
f 92/1/3 89/1/3 91/1/3
f 93/1/3 89/1/3 92/1/3
f 94/1/3 90/1/3 88/1/3
f 95/1/3 90/1/3 94/1/3
f 96/1/3 90/1/3 95/1/3
f 97/1/3 92/1/3 91/1/3
f 98/1/3 92/1/3 97/1/3
f 99/4/3 93/4/3 92/4/3
f 99/1/3 92/1/3 98/1/3
f 100/1/3 89/1/3 93/1/3
f 100/4/3 93/4/3 99/4/3
f 101/1/3 94/1/3 88/1/3
f 102/1/3 94/1/3 101/1/3
f 103/1/3 98/1/3 97/1/3
f 103/1/3 96/1/3 95/1/3
f 103/1/3 97/1/3 96/1/3
f 104/1/3 98/1/3 103/1/3
f 105/4/3 99/4/3 98/4/3
f 105/1/3 98/1/3 104/1/3
f 106/1/3 100/1/3 99/1/3
f 106/4/3 99/4/3 105/4/3
f 107/1/3 101/1/3 88/1/3
f 110/1/3 106/1/3 105/1/3
f 110/1/3 105/1/3 104/1/3
f 111/1/3 108/1/3 107/1/3
f 112/1/3 110/1/3 109/1/3
f 113/1/3 106/1/3 110/1/3
f 113/1/3 110/1/3 112/1/3
f 114/1/3 106/1/3 113/1/3
f 115/1/3 100/1/3 106/1/3
f 115/1/3 106/1/3 114/1/3
f 116/1/3 89/1/3 100/1/3
f 116/1/3 100/1/3 115/1/3
f 117/1/3 112/1/3 111/1/3
f 117/1/3 113/1/3 112/1/3
f 118/1/3 115/1/3 114/1/3
f 119/1/3 115/1/3 118/1/3
f 120/4/3 116/4/3 115/4/3
f 120/1/3 115/1/3 119/1/3
f 121/1/3 89/1/3 116/1/3
f 121/4/3 116/4/3 120/4/3
f 122/4/3 120/4/3 119/4/3
f 122/1/3 119/1/3 118/1/3
f 122/1/3 118/1/3 117/1/3
f 123/1/3 121/1/3 120/1/3
f 123/4/3 120/4/3 122/4/3
f 124/1/3 111/1/3 107/1/3
f 124/1/3 117/1/3 111/1/3
f 124/1/3 123/1/3 122/1/3
f 124/1/3 107/1/3 88/1/3
f 124/1/3 122/1/3 117/1/3
f 125/1/3 89/1/3 121/1/3
f 125/1/3 123/1/3 124/1/3
f 125/1/3 121/1/3 123/1/3
f 130/4/3 127/4/3 126/4/3
f 131/4/3 129/4/3 128/4/3
f 134/4/3 130/4/3 126/4/3
f 134/4/3 131/4/3 130/4/3
f 135/4/3 129/4/3 131/4/3
f 135/4/3 131/4/3 134/4/3
f 136/3/3 133/3/3 132/3/3
f 137/3/3 133/3/3 136/3/3
f 138/4/3 134/4/3 126/4/3
f 140/2/3 137/2/3 136/2/3
f 141/3/3 133/3/3 137/3/3
f 141/2/3 137/2/3 140/2/3
f 142/3/3 133/3/3 141/3/3
f 143/4/3 139/4/3 138/4/3
f 145/4/3 143/4/3 138/4/3
f 145/4/3 144/4/3 143/4/3
f 146/4/3 144/4/3 145/4/3
f 147/4/3 138/4/3 126/4/3
f 147/4/3 145/4/3 138/4/3
f 148/4/3 145/4/3 147/4/3
f 152/4/3 147/4/3 126/4/3
f 154/2/3 150/2/3 149/2/3
f 155/3/3 151/3/3 150/3/3
f 155/2/3 150/2/3 154/2/3
f 156/3/3 155/3/3 154/3/3
f 157/3/3 151/3/3 155/3/3
f 157/3/3 155/3/3 156/3/3
f 158/3/3 151/3/3 157/3/3
f 159/4/3 153/4/3 152/4/3
f 159/4/3 152/4/3 126/4/3
f 160/4/3 153/4/3 159/4/3
f 161/1/4 162/1/4 165/1/4
f 163/1/4 164/1/4 166/1/4
f 161/1/4 165/1/4 169/1/4
f 165/1/4 166/1/4 169/1/4
f 166/1/4 164/1/4 170/1/4
f 169/1/4 166/1/4 170/1/4
f 161/1/4 169/1/4 171/1/4
f 167/1/4 168/1/4 172/1/4
f 172/1/4 168/1/4 173/1/4
f 173/1/4 168/1/4 174/1/4
f 161/1/4 171/1/4 175/1/4
f 175/1/4 171/1/4 176/1/4
f 177/1/4 178/1/4 179/1/4
f 177/1/4 179/1/4 182/1/4
f 180/1/4 181/1/4 184/1/4
f 184/1/4 181/1/4 185/1/4
f 185/1/4 181/1/4 186/1/4
f 182/1/4 183/1/4 187/1/4
f 177/1/4 182/1/4 187/1/4
f 187/1/4 183/1/4 188/1/4
f 189/1/4 190/1/4 191/1/4
f 191/1/4 190/1/4 192/1/4
f 195/1/5 194/1/5 193/1/5
f 196/1/5 194/1/5 195/1/5
f 203/1/5 198/1/5 197/1/5
f 204/1/5 198/1/5 203/1/5
f 205/1/5 200/1/5 199/1/5
f 206/1/5 200/1/5 205/1/5
f 207/1/5 202/1/5 201/1/5
f 208/1/5 202/1/5 207/1/5
f 217/4/5 214/4/5 213/4/5
f 218/4/5 214/4/5 217/4/5
f 219/1/5 210/1/5 209/1/5
f 220/1/5 210/1/5 219/1/5
f 221/1/5 212/1/5 211/1/5
f 222/1/5 212/1/5 221/1/5
f 223/4/5 216/4/5 215/4/5
f 224/4/5 216/4/5 223/4/5
f 227/1/5 226/1/5 225/1/5
f 228/1/5 226/1/5 227/1/5
f 233/1/5 230/1/5 229/1/5
f 234/1/5 230/1/5 233/1/5
f 235/1/5 232/1/5 231/1/5
f 236/1/5 232/1/5 235/1/5
f 241/4/5 238/4/5 237/4/5
f 242/4/5 238/4/5 241/4/5
f 243/4/5 240/4/5 239/4/5
f 244/4/5 240/4/5 243/4/5
f 245/1/6 246/1/6 248/1/6
f 248/1/6 246/1/6 249/1/6
f 247/1/6 248/1/6 251/1/6
f 249/1/6 250/1/6 251/1/6
f 248/1/6 249/1/6 251/1/6
f 251/1/6 250/1/6 252/1/6
f 253/1/6 254/1/6 257/1/6
f 257/1/6 254/1/6 258/1/6
f 255/1/6 256/1/6 259/1/6
f 259/1/6 256/1/6 260/1/6
f 261/1/6 262/1/6 263/1/6
f 263/1/6 262/1/6 264/1/6
f 265/1/6 266/1/6 269/1/6
f 269/1/6 266/1/6 270/1/6
f 270/1/6 266/1/6 271/1/6
f 267/1/6 268/1/6 272/1/6
f 272/1/6 268/1/6 273/1/6
f 273/1/6 268/1/6 274/1/6
f 275/1/6 276/1/6 277/1/6
f 277/1/6 276/1/6 278/1/6
