# MagicaVoxel @ Ephtracy

# material
mtllib Billy-05.mtl
usemtl palette

# normals
vn -1 0 0
vn 1 0 0
vn 0 0 1
vn 0 0 -1
vn 0 -1 0
vn 0 1 0

# texcoords
vt 0.404297 0.5
vt 0.931641 0.5
vt 0.962891 0.5
vt 0.994141 0.5

# verts
v -7.5 0 7
v -7.5 0 -7
v -7.5 14 7
v -7.5 14 -7
v -5.5 5 7
v -5.5 5 6
v -5.5 6 7
v -5.5 6 6
v -2.5 8 7
v -2.5 8 5
v -2.5 10 7
v -2.5 10 5
v -2.5 11 7
v -2.5 11 5
v -1.5 4 7
v -1.5 4 6
v -1.5 5 7
v -1.5 5 6
v 1.5 2 7
v 1.5 2 6
v 1.5 3 7
v 1.5 3 6
v 5.5 3 7
v 5.5 3 6
v 5.5 4 7
v 5.5 4 6
v 5.5 8 7
v 5.5 8 5
v 5.5 10 7
v 5.5 10 5
v 5.5 11 7
v 5.5 11 5
v 6.5 2 6
v 6.5 2 5
v 6.5 4 7
v 6.5 4 6
v 6.5 5 6
v 6.5 5 5
v 6.5 6 7
v 6.5 6 6
v -6.5 2 6
v -6.5 2 5
v -6.5 4 7
v -6.5 4 6
v -6.5 5 6
v -6.5 5 5
v -6.5 6 7
v -6.5 6 6
v -5.5 3 7
v -5.5 3 6
v -5.5 4 7
v -5.5 4 6
v -5.5 8 7
v -5.5 8 5
v -5.5 11 7
v -5.5 11 5
v -1.5 2 7
v -1.5 2 6
v -1.5 3 7
v -1.5 3 6
v 1.5 4 7
v 1.5 4 6
v 1.5 5 7
v 1.5 5 6
v 2.5 8 7
v 2.5 8 5
v 2.5 10 5
v 2.5 11 7
v 2.5 11 5
v 5.5 5 7
v 5.5 5 6
v 5.5 6 7
v 5.5 6 6
v 7.5 0 7
v 7.5 0 -7
v 7.5 14 7
v 7.5 14 -7
v -7.5 0 7
v -7.5 14 7
v -6.5 4 7
v -6.5 6 7
v -5.5 3 7
v -5.5 4 7
v -5.5 5 7
v -5.5 6 7
v -5.5 8 7
v -5.5 11 7
v -5.5 12 7
v -2.5 8 7
v -2.5 10 7
v -2.5 11 7
v -2.5 12 7
v -1.5 2 7
v -1.5 3 7
v -1.5 4 7
v -1.5 5 7
v -1.5 10 7
v -1.5 11 7
v 1.5 2 7
v 1.5 3 7
v 1.5 4 7
v 1.5 5 7
v 2.5 8 7
v 2.5 11 7
v 2.5 12 7
v 5.5 3 7
v 5.5 4 7
v 5.5 5 7
v 5.5 6 7
v 5.5 8 7
v 5.5 10 7
v 5.5 11 7
v 5.5 12 7
v 6.5 4 7
v 6.5 6 7
v 6.5 10 7
v 6.5 11 7
v 7.5 0 7
v 7.5 14 7
v -6.5 5 6
v -6.5 6 6
v -5.5 5 6
v -5.5 6 6
v 5.5 5 6
v 5.5 6 6
v 6.5 5 6
v 6.5 6 6
v -6.5 2 5
v -6.5 5 5
v -5.5 8 5
v -5.5 11 5
v -4.5 5 5
v -4.5 8 5
v -4.5 10 5
v -2.5 8 5
v -2.5 10 5
v -2.5 11 5
v 2.5 8 5
v 2.5 10 5
v 2.5 11 5
v 4.5 5 5
v 4.5 8 5
v 4.5 10 5
v 5.5 8 5
v 5.5 10 5
v 5.5 11 5
v 6.5 2 5
v 6.5 5 5
v -6.5 2 6
v -6.5 4 6
v -5.5 3 6
v -5.5 4 6
v -1.5 2 6
v -1.5 3 6
v -1.5 4 6
v -1.5 5 6
v 1.5 2 6
v 1.5 3 6
v 1.5 4 6
v 1.5 5 6
v 5.5 3 6
v 5.5 4 6
v 6.5 2 6
v 6.5 4 6
v -7.5 0 -7
v -7.5 14 -7
v 7.5 0 -7
v 7.5 14 -7
v -7.5 0 7
v 7.5 0 7
v -7.5 0 -7
v 7.5 0 -7
v -1.5 4 7
v 1.5 4 7
v -1.5 4 6
v 1.5 4 6
v -5.5 5 7
v -1.5 5 7
v 1.5 5 7
v 5.5 5 7
v -6.5 5 6
v -5.5 5 6
v -4.5 5 6
v -1.5 5 6
v 1.5 5 6
v 4.5 5 6
v 5.5 5 6
v 6.5 5 6
v -6.5 5 5
v -4.5 5 5
v 4.5 5 5
v 6.5 5 5
v -6.5 6 7
v -5.5 6 7
v 5.5 6 7
v 6.5 6 7
v -6.5 6 6
v -5.5 6 6
v 5.5 6 6
v 6.5 6 6
v -5.5 11 7
v -2.5 11 7
v 2.5 11 7
v 5.5 11 7
v -5.5 11 5
v -2.5 11 5
v 2.5 11 5
v 5.5 11 5
v -1.5 2 7
v 1.5 2 7
v -6.5 2 6
v -1.5 2 6
v 1.5 2 6
v 6.5 2 6
v -6.5 2 5
v 6.5 2 5
v -5.5 3 7
v -1.5 3 7
v 1.5 3 7
v 5.5 3 7
v -5.5 3 6
v -1.5 3 6
v 1.5 3 6
v 5.5 3 6
v -6.5 4 7
v -5.5 4 7
v 5.5 4 7
v 6.5 4 7
v -6.5 4 6
v -5.5 4 6
v 5.5 4 6
v 6.5 4 6
v -5.5 8 7
v -2.5 8 7
v 2.5 8 7
v 5.5 8 7
v -5.5 8 5
v -4.5 8 5
v -2.5 8 5
v 2.5 8 5
v 4.5 8 5
v 5.5 8 5
v -7.5 14 7
v 7.5 14 7
v -7.5 14 -7
v 7.5 14 -7

# faces
f 3/1/1 2/1/1 1/1/1
f 4/1/1 2/1/1 3/1/1
f 7/1/1 6/1/1 5/1/1
f 8/1/1 6/1/1 7/1/1
f 11/1/1 10/1/1 9/1/1
f 12/1/1 10/1/1 11/1/1
f 13/4/1 12/4/1 11/4/1
f 14/4/1 12/4/1 13/4/1
f 17/1/1 16/1/1 15/1/1
f 18/1/1 16/1/1 17/1/1
f 21/1/1 20/1/1 19/1/1
f 22/1/1 20/1/1 21/1/1
f 25/1/1 24/1/1 23/1/1
f 26/1/1 24/1/1 25/1/1
f 29/1/1 28/1/1 27/1/1
f 30/1/1 28/1/1 29/1/1
f 31/4/1 30/4/1 29/4/1
f 32/4/1 30/4/1 31/4/1
f 36/1/1 34/1/1 33/1/1
f 37/1/1 34/1/1 36/1/1
f 37/1/1 36/1/1 35/1/1
f 38/1/1 34/1/1 37/1/1
f 39/1/1 37/1/1 35/1/1
f 40/1/1 37/1/1 39/1/1
f 41/1/2 42/1/2 44/1/2
f 44/1/2 42/1/2 45/1/2
f 43/1/2 44/1/2 45/1/2
f 45/1/2 42/1/2 46/1/2
f 43/1/2 45/1/2 47/1/2
f 47/1/2 45/1/2 48/1/2
f 49/1/2 50/1/2 51/1/2
f 51/1/2 50/1/2 52/1/2
f 53/1/2 54/1/2 55/1/2
f 55/1/2 54/1/2 56/1/2
f 57/1/2 58/1/2 59/1/2
f 59/1/2 58/1/2 60/1/2
f 61/1/2 62/1/2 63/1/2
f 63/1/2 62/1/2 64/1/2
f 65/1/2 66/1/2 67/1/2
f 65/1/2 67/1/2 68/1/2
f 68/1/2 67/1/2 69/1/2
f 70/1/2 71/1/2 72/1/2
f 72/1/2 71/1/2 73/1/2
f 74/1/2 75/1/2 76/1/2
f 76/1/2 75/1/2 77/1/2
f 80/1/3 79/1/3 78/1/3
f 81/1/3 79/1/3 80/1/3
f 82/1/3 80/1/3 78/1/3
f 83/1/3 80/1/3 82/1/3
f 85/1/3 79/1/3 81/1/3
f 86/1/3 79/1/3 85/1/3
f 87/1/3 79/1/3 86/1/3
f 88/1/3 79/1/3 87/1/3
f 89/1/3 85/1/3 84/1/3
f 89/1/3 86/1/3 85/1/3
f 91/4/3 88/4/3 87/4/3
f 92/1/3 79/1/3 88/1/3
f 92/4/3 88/4/3 91/4/3
f 93/1/3 82/1/3 78/1/3
f 94/1/3 82/1/3 93/1/3
f 96/1/3 90/1/3 89/1/3
f 96/1/3 89/1/3 84/1/3
f 97/4/3 91/4/3 90/4/3
f 97/1/3 90/1/3 96/1/3
f 98/1/3 92/1/3 91/1/3
f 98/4/3 91/4/3 97/4/3
f 99/1/3 93/1/3 78/1/3
f 101/1/3 96/1/3 95/1/3
f 101/1/3 98/1/3 97/1/3
f 101/1/3 97/1/3 96/1/3
f 102/1/3 98/1/3 101/1/3
f 103/1/3 98/1/3 102/1/3
f 104/1/3 92/1/3 98/1/3
f 104/1/3 98/1/3 103/1/3
f 105/1/3 79/1/3 92/1/3
f 105/1/3 92/1/3 104/1/3
f 106/1/3 100/1/3 99/1/3
f 108/1/3 103/1/3 102/1/3
f 109/1/3 103/1/3 108/1/3
f 110/1/3 103/1/3 109/1/3
f 112/4/3 105/4/3 104/4/3
f 113/1/3 79/1/3 105/1/3
f 113/4/3 105/4/3 112/4/3
f 114/1/3 107/1/3 106/1/3
f 115/1/3 111/1/3 110/1/3
f 115/1/3 110/1/3 109/1/3
f 116/4/3 112/4/3 111/4/3
f 116/1/3 111/1/3 115/1/3
f 117/1/3 113/1/3 112/1/3
f 117/4/3 112/4/3 116/4/3
f 118/1/3 115/1/3 114/1/3
f 118/1/3 114/1/3 106/1/3
f 118/1/3 117/1/3 116/1/3
f 118/1/3 99/1/3 78/1/3
f 118/1/3 106/1/3 99/1/3
f 118/1/3 116/1/3 115/1/3
f 119/1/3 113/1/3 117/1/3
f 119/1/3 117/1/3 118/1/3
f 119/1/3 79/1/3 113/1/3
f 122/4/3 121/4/3 120/4/3
f 123/4/3 121/4/3 122/4/3
f 126/4/3 125/4/3 124/4/3
f 127/4/3 125/4/3 126/4/3
f 132/4/3 129/4/3 128/4/3
f 133/3/3 131/3/3 130/3/3
f 134/3/3 131/3/3 133/3/3
f 135/2/3 134/2/3 133/2/3
f 136/3/3 131/3/3 134/3/3
f 136/2/3 134/2/3 135/2/3
f 137/3/3 131/3/3 136/3/3
f 141/4/3 132/4/3 128/4/3
f 142/2/3 139/2/3 138/2/3
f 143/3/3 140/3/3 139/3/3
f 143/2/3 139/2/3 142/2/3
f 144/3/3 143/3/3 142/3/3
f 145/3/3 140/3/3 143/3/3
f 145/3/3 143/3/3 144/3/3
f 146/3/3 140/3/3 145/3/3
f 147/4/3 141/4/3 128/4/3
f 148/4/3 141/4/3 147/4/3
f 149/1/4 150/1/4 151/1/4
f 151/1/4 150/1/4 152/1/4
f 149/1/4 151/1/4 153/1/4
f 153/1/4 151/1/4 154/1/4
f 155/1/4 156/1/4 159/1/4
f 159/1/4 156/1/4 160/1/4
f 157/1/4 158/1/4 161/1/4
f 157/1/4 161/1/4 163/1/4
f 161/1/4 162/1/4 163/1/4
f 163/1/4 162/1/4 164/1/4
f 165/1/4 166/1/4 167/1/4
f 167/1/4 166/1/4 168/1/4
f 171/1/5 170/1/5 169/1/5
f 172/1/5 170/1/5 171/1/5
f 175/1/5 174/1/5 173/1/5
f 176/1/5 174/1/5 175/1/5
f 182/1/5 178/1/5 177/1/5
f 183/1/5 178/1/5 182/1/5
f 184/1/5 178/1/5 183/1/5
f 185/1/5 180/1/5 179/1/5
f 186/1/5 180/1/5 185/1/5
f 187/1/5 180/1/5 186/1/5
f 189/4/5 182/4/5 181/4/5
f 189/4/5 183/4/5 182/4/5
f 190/1/5 184/1/5 183/1/5
f 190/4/5 183/4/5 189/4/5
f 190/1/5 185/1/5 184/1/5
f 190/1/5 186/1/5 185/1/5
f 191/4/5 188/4/5 187/4/5
f 191/1/5 186/1/5 190/1/5
f 191/4/5 187/4/5 186/4/5
f 192/4/5 188/4/5 191/4/5
f 197/1/5 194/1/5 193/1/5
f 198/1/5 194/1/5 197/1/5
f 199/1/5 196/1/5 195/1/5
f 200/1/5 196/1/5 199/1/5
f 205/4/5 202/4/5 201/4/5
f 206/4/5 202/4/5 205/4/5
f 207/4/5 204/4/5 203/4/5
f 208/4/5 204/4/5 207/4/5
f 209/1/6 210/1/6 212/1/6
f 212/1/6 210/1/6 213/1/6
f 211/1/6 212/1/6 215/1/6
f 213/1/6 214/1/6 215/1/6
f 212/1/6 213/1/6 215/1/6
f 215/1/6 214/1/6 216/1/6
f 217/1/6 218/1/6 221/1/6
f 221/1/6 218/1/6 222/1/6
f 219/1/6 220/1/6 223/1/6
f 223/1/6 220/1/6 224/1/6
f 225/1/6 226/1/6 229/1/6
f 229/1/6 226/1/6 230/1/6
f 227/1/6 228/1/6 231/1/6
f 231/1/6 228/1/6 232/1/6
f 233/1/6 234/1/6 237/1/6
f 237/1/6 234/1/6 238/1/6
f 238/1/6 234/1/6 239/1/6
f 235/1/6 236/1/6 240/1/6
f 240/1/6 236/1/6 241/1/6
f 241/1/6 236/1/6 242/1/6
f 243/1/6 244/1/6 245/1/6
f 245/1/6 244/1/6 246/1/6
