# MagicaVoxel @ Ephtracy

# material
mtllib Billy-07.mtl
usemtl palette

# normals
vn -1 0 0
vn 1 0 0
vn 0 0 1
vn 0 0 -1
vn 0 -1 0
vn 0 1 0

# texcoords
vt 0.404297 0.5
vt 0.931641 0.5
vt 0.962891 0.5
vt 0.994141 0.5

# verts
v -7.5 0 7
v -7.5 0 -7
v -7.5 14 7
v -7.5 14 -7
v -4.5 5 7
v -4.5 5 6
v -4.5 6 7
v -4.5 6 6
v -2.5 8 7
v -2.5 8 5
v -2.5 10 7
v -2.5 10 6
v -2.5 10 5
v -2.5 11 6
v -2.5 11 5
v -1.5 4 7
v -1.5 4 6
v -1.5 5 7
v -1.5 5 6
v 1.5 2 7
v 1.5 2 6
v 1.5 3 7
v 1.5 3 6
v 5.5 3 7
v 5.5 3 6
v 5.5 5 6
v 5.5 6 7
v 5.5 6 6
v 5.5 8 7
v 5.5 8 5
v 5.5 10 7
v 5.5 10 6
v 5.5 10 5
v 5.5 11 6
v 5.5 11 5
v 6.5 2 6
v 6.5 2 5
v 6.5 5 6
v 6.5 5 5
v -6.5 2 6
v -6.5 2 5
v -6.5 5 6
v -6.5 5 5
v -5.5 3 7
v -5.5 3 6
v -5.5 5 6
v -5.5 6 7
v -5.5 6 6
v -5.5 8 7
v -5.5 8 5
v -5.5 10 7
v -5.5 10 6
v -5.5 11 6
v -5.5 11 5
v -1.5 2 7
v -1.5 2 6
v -1.5 3 7
v -1.5 3 6
v 1.5 4 7
v 1.5 4 6
v 1.5 5 7
v 1.5 5 6
v 2.5 8 7
v 2.5 8 5
v 2.5 10 7
v 2.5 10 6
v 2.5 10 5
v 2.5 11 6
v 2.5 11 5
v 4.5 5 7
v 4.5 5 6
v 4.5 6 7
v 4.5 6 6
v 7.5 0 7
v 7.5 0 -7
v 7.5 14 7
v 7.5 14 -7
v -7.5 0 7
v -7.5 14 7
v -5.5 3 7
v -5.5 6 7
v -5.5 8 7
v -5.5 10 7
v -5.5 11 7
v -5.5 12 7
v -4.5 5 7
v -4.5 6 7
v -2.5 8 7
v -2.5 10 7
v -2.5 11 7
v -2.5 12 7
v -1.5 2 7
v -1.5 3 7
v -1.5 4 7
v -1.5 5 7
v -1.5 10 7
v -1.5 11 7
v 1.5 2 7
v 1.5 3 7
v 1.5 4 7
v 1.5 5 7
v 2.5 8 7
v 2.5 10 7
v 2.5 11 7
v 2.5 12 7
v 4.5 5 7
v 4.5 6 7
v 5.5 3 7
v 5.5 6 7
v 5.5 8 7
v 5.5 10 7
v 5.5 11 7
v 5.5 12 7
v 6.5 10 7
v 6.5 11 7
v 7.5 0 7
v 7.5 14 7
v -5.5 5 6
v -5.5 6 6
v -4.5 5 6
v -4.5 6 6
v 4.5 5 6
v 4.5 6 6
v 5.5 5 6
v 5.5 6 6
v -6.5 2 5
v -6.5 5 5
v -5.5 8 5
v -5.5 11 5
v -4.5 5 5
v -4.5 8 5
v -4.5 10 5
v -2.5 8 5
v -2.5 10 5
v -2.5 11 5
v 2.5 8 5
v 2.5 10 5
v 2.5 11 5
v 4.5 5 5
v 4.5 8 5
v 4.5 10 5
v 5.5 8 5
v 5.5 10 5
v 5.5 11 5
v 6.5 2 5
v 6.5 5 5
v -6.5 2 6
v -6.5 5 6
v -5.5 3 6
v -5.5 5 6
v -5.5 10 6
v -5.5 11 6
v -2.5 10 6
v -2.5 11 6
v -1.5 2 6
v -1.5 3 6
v -1.5 4 6
v -1.5 5 6
v 1.5 2 6
v 1.5 3 6
v 1.5 4 6
v 1.5 5 6
v 2.5 10 6
v 2.5 11 6
v 5.5 3 6
v 5.5 5 6
v 5.5 10 6
v 5.5 11 6
v 6.5 2 6
v 6.5 5 6
v -7.5 0 -7
v -7.5 14 -7
v 7.5 0 -7
v 7.5 14 -7
v -7.5 0 7
v 7.5 0 7
v -7.5 0 -7
v 7.5 0 -7
v -1.5 4 7
v 1.5 4 7
v -1.5 4 6
v 1.5 4 6
v -4.5 5 7
v -1.5 5 7
v 1.5 5 7
v 4.5 5 7
v -6.5 5 6
v -5.5 5 6
v -4.5 5 6
v -1.5 5 6
v 1.5 5 6
v 4.5 5 6
v 5.5 5 6
v 6.5 5 6
v -6.5 5 5
v -4.5 5 5
v 4.5 5 5
v 6.5 5 5
v -5.5 6 7
v -4.5 6 7
v 4.5 6 7
v 5.5 6 7
v -5.5 6 6
v -4.5 6 6
v 4.5 6 6
v 5.5 6 6
v -5.5 10 7
v -2.5 10 7
v 2.5 10 7
v 5.5 10 7
v -5.5 10 6
v -2.5 10 6
v 2.5 10 6
v 5.5 10 6
v -5.5 11 6
v -2.5 11 6
v 2.5 11 6
v 5.5 11 6
v -5.5 11 5
v -2.5 11 5
v 2.5 11 5
v 5.5 11 5
v -1.5 2 7
v 1.5 2 7
v -6.5 2 6
v -1.5 2 6
v 1.5 2 6
v 6.5 2 6
v -6.5 2 5
v 6.5 2 5
v -5.5 3 7
v -1.5 3 7
v 1.5 3 7
v 5.5 3 7
v -5.5 3 6
v -1.5 3 6
v 1.5 3 6
v 5.5 3 6
v -5.5 8 7
v -2.5 8 7
v 2.5 8 7
v 5.5 8 7
v -5.5 8 5
v -4.5 8 5
v -2.5 8 5
v 2.5 8 5
v 4.5 8 5
v 5.5 8 5
v -7.5 14 7
v 7.5 14 7
v -7.5 14 -7
v 7.5 14 -7

# faces
f 3/1/1 2/1/1 1/1/1
f 4/1/1 2/1/1 3/1/1
f 7/1/1 6/1/1 5/1/1
f 8/1/1 6/1/1 7/1/1
f 11/1/1 10/1/1 9/1/1
f 12/1/1 10/1/1 11/1/1
f 13/1/1 10/1/1 12/1/1
f 14/4/1 13/4/1 12/4/1
f 15/4/1 13/4/1 14/4/1
f 18/1/1 17/1/1 16/1/1
f 19/1/1 17/1/1 18/1/1
f 22/1/1 21/1/1 20/1/1
f 23/1/1 21/1/1 22/1/1
f 26/1/1 25/1/1 24/1/1
f 27/1/1 26/1/1 24/1/1
f 28/1/1 26/1/1 27/1/1
f 31/1/1 30/1/1 29/1/1
f 32/1/1 30/1/1 31/1/1
f 33/1/1 30/1/1 32/1/1
f 34/4/1 33/4/1 32/4/1
f 35/4/1 33/4/1 34/4/1
f 38/1/1 37/1/1 36/1/1
f 39/1/1 37/1/1 38/1/1
f 40/1/2 41/1/2 42/1/2
f 42/1/2 41/1/2 43/1/2
f 44/1/2 45/1/2 46/1/2
f 44/1/2 46/1/2 47/1/2
f 47/1/2 46/1/2 48/1/2
f 49/1/2 50/1/2 51/1/2
f 51/1/2 50/1/2 52/1/2
f 52/1/2 50/1/2 53/1/2
f 53/1/2 50/1/2 54/1/2
f 55/1/2 56/1/2 57/1/2
f 57/1/2 56/1/2 58/1/2
f 59/1/2 60/1/2 61/1/2
f 61/1/2 60/1/2 62/1/2
f 63/1/2 64/1/2 65/1/2
f 65/1/2 64/1/2 66/1/2
f 66/1/2 64/1/2 67/1/2
f 66/1/2 67/1/2 68/1/2
f 68/1/2 67/1/2 69/1/2
f 70/1/2 71/1/2 72/1/2
f 72/1/2 71/1/2 73/1/2
f 74/1/2 75/1/2 76/1/2
f 76/1/2 75/1/2 77/1/2
f 80/1/3 79/1/3 78/1/3
f 81/1/3 79/1/3 80/1/3
f 82/1/3 79/1/3 81/1/3
f 83/1/3 79/1/3 82/1/3
f 84/1/3 79/1/3 83/1/3
f 85/1/3 79/1/3 84/1/3
f 87/1/3 82/1/3 81/1/3
f 88/1/3 82/1/3 87/1/3
f 88/1/3 87/1/3 86/1/3
f 89/1/3 84/1/3 83/1/3
f 90/4/3 85/4/3 84/4/3
f 90/1/3 84/1/3 89/1/3
f 91/1/3 79/1/3 85/1/3
f 91/4/3 85/4/3 90/4/3
f 92/1/3 80/1/3 78/1/3
f 93/1/3 80/1/3 92/1/3
f 95/1/3 88/1/3 86/1/3
f 95/1/3 89/1/3 88/1/3
f 96/4/3 90/4/3 89/4/3
f 96/1/3 89/1/3 95/1/3
f 97/1/3 91/1/3 90/1/3
f 97/4/3 90/4/3 96/4/3
f 98/1/3 92/1/3 78/1/3
f 100/1/3 95/1/3 94/1/3
f 100/1/3 97/1/3 96/1/3
f 100/1/3 96/1/3 95/1/3
f 101/1/3 97/1/3 100/1/3
f 102/1/3 97/1/3 101/1/3
f 103/1/3 97/1/3 102/1/3
f 104/1/3 91/1/3 97/1/3
f 104/1/3 97/1/3 103/1/3
f 105/1/3 79/1/3 91/1/3
f 105/1/3 91/1/3 104/1/3
f 106/1/3 102/1/3 101/1/3
f 107/1/3 102/1/3 106/1/3
f 108/1/3 99/1/3 98/1/3
f 109/1/3 102/1/3 107/1/3
f 110/1/3 102/1/3 109/1/3
f 111/1/3 104/1/3 103/1/3
f 112/4/3 105/4/3 104/4/3
f 112/1/3 104/1/3 111/1/3
f 113/1/3 79/1/3 105/1/3
f 113/4/3 105/4/3 112/4/3
f 114/1/3 110/1/3 109/1/3
f 114/4/3 112/4/3 111/4/3
f 114/1/3 111/1/3 110/1/3
f 114/1/3 109/1/3 108/1/3
f 115/1/3 113/1/3 112/1/3
f 115/4/3 112/4/3 114/4/3
f 116/1/3 108/1/3 98/1/3
f 116/1/3 114/1/3 108/1/3
f 116/1/3 115/1/3 114/1/3
f 116/1/3 98/1/3 78/1/3
f 117/1/3 79/1/3 113/1/3
f 117/1/3 115/1/3 116/1/3
f 117/1/3 113/1/3 115/1/3
f 120/4/3 119/4/3 118/4/3
f 121/4/3 119/4/3 120/4/3
f 124/4/3 123/4/3 122/4/3
f 125/4/3 123/4/3 124/4/3
f 130/4/3 127/4/3 126/4/3
f 131/3/3 129/3/3 128/3/3
f 132/3/3 129/3/3 131/3/3
f 133/2/3 132/2/3 131/2/3
f 134/3/3 129/3/3 132/3/3
f 134/2/3 132/2/3 133/2/3
f 135/3/3 129/3/3 134/3/3
f 139/4/3 130/4/3 126/4/3
f 140/2/3 137/2/3 136/2/3
f 141/3/3 138/3/3 137/3/3
f 141/2/3 137/2/3 140/2/3
f 142/3/3 141/3/3 140/3/3
f 143/3/3 138/3/3 141/3/3
f 143/3/3 141/3/3 142/3/3
f 144/3/3 138/3/3 143/3/3
f 145/4/3 139/4/3 126/4/3
f 146/4/3 139/4/3 145/4/3
f 147/1/4 148/1/4 149/1/4
f 149/1/4 148/1/4 150/1/4
f 151/1/4 152/1/4 153/1/4
f 153/1/4 152/1/4 154/1/4
f 147/1/4 149/1/4 155/1/4
f 155/1/4 149/1/4 156/1/4
f 157/1/4 158/1/4 161/1/4
f 161/1/4 158/1/4 162/1/4
f 159/1/4 160/1/4 165/1/4
f 163/1/4 164/1/4 167/1/4
f 167/1/4 164/1/4 168/1/4
f 165/1/4 166/1/4 169/1/4
f 159/1/4 165/1/4 169/1/4
f 169/1/4 166/1/4 170/1/4
f 171/1/4 172/1/4 173/1/4
f 173/1/4 172/1/4 174/1/4
f 177/1/5 176/1/5 175/1/5
f 178/1/5 176/1/5 177/1/5
f 181/1/5 180/1/5 179/1/5
f 182/1/5 180/1/5 181/1/5
f 189/1/5 184/1/5 183/1/5
f 190/1/5 184/1/5 189/1/5
f 191/1/5 186/1/5 185/1/5
f 192/1/5 186/1/5 191/1/5
f 195/4/5 188/4/5 187/4/5
f 195/4/5 189/4/5 188/4/5
f 196/1/5 190/1/5 189/1/5
f 196/4/5 189/4/5 195/4/5
f 196/1/5 191/1/5 190/1/5
f 196/1/5 192/1/5 191/1/5
f 197/4/5 194/4/5 193/4/5
f 197/1/5 192/1/5 196/1/5
f 197/4/5 193/4/5 192/4/5
f 198/4/5 194/4/5 197/4/5
f 203/1/5 200/1/5 199/1/5
f 204/1/5 200/1/5 203/1/5
f 205/1/5 202/1/5 201/1/5
f 206/1/5 202/1/5 205/1/5
f 211/1/5 208/1/5 207/1/5
f 212/1/5 208/1/5 211/1/5
f 213/1/5 210/1/5 209/1/5
f 214/1/5 210/1/5 213/1/5
f 219/4/5 216/4/5 215/4/5
f 220/4/5 216/4/5 219/4/5
f 221/4/5 218/4/5 217/4/5
f 222/4/5 218/4/5 221/4/5
f 223/1/6 224/1/6 226/1/6
f 226/1/6 224/1/6 227/1/6
f 225/1/6 226/1/6 229/1/6
f 227/1/6 228/1/6 229/1/6
f 226/1/6 227/1/6 229/1/6
f 229/1/6 228/1/6 230/1/6
f 231/1/6 232/1/6 235/1/6
f 235/1/6 232/1/6 236/1/6
f 233/1/6 234/1/6 237/1/6
f 237/1/6 234/1/6 238/1/6
f 239/1/6 240/1/6 243/1/6
f 243/1/6 240/1/6 244/1/6
f 244/1/6 240/1/6 245/1/6
f 241/1/6 242/1/6 246/1/6
f 246/1/6 242/1/6 247/1/6
f 247/1/6 242/1/6 248/1/6
f 249/1/6 250/1/6 251/1/6
f 251/1/6 250/1/6 252/1/6
