# MagicaVoxel @ Ephtracy

# material
mtllib Billy-23.mtl
usemtl palette

# normals
vn -1 0 0
vn 1 0 0
vn 0 0 1
vn 0 0 -1
vn 0 -1 0
vn 0 1 0

# texcoords
vt 0.404297 0.5
vt 0.931641 0.5
vt 0.962891 0.5
vt 0.994141 0.5

# verts
v -7.5 0 7
v -7.5 0 -7
v -7.5 14 7
v -7.5 14 -7
v -4.5 3 6
v -4.5 3 5
v -4.5 5 6
v -4.5 5 5
v -2.5 8 7
v -2.5 8 5
v -2.5 10 7
v -2.5 10 6
v -2.5 10 5
v -2.5 11 6
v -2.5 11 5
v 1.5 2 7
v 1.5 2 6
v 1.5 3 7
v 1.5 3 6
v 1.5 5 7
v 1.5 5 5
v 1.5 6 7
v 1.5 6 5
v 2.5 3 7
v 2.5 3 6
v 2.5 3 5
v 2.5 5 7
v 2.5 5 5
v 5.5 8 7
v 5.5 8 5
v 5.5 10 7
v 5.5 10 6
v 5.5 10 5
v 5.5 11 6
v 5.5 11 5
v 6.5 2 6
v 6.5 2 5
v 6.5 5 6
v 6.5 5 5
v -6.5 2 6
v -6.5 2 5
v -6.5 3 6
v -6.5 3 5
v -6.5 4 6
v -6.5 4 5
v -6.5 5 6
v -6.5 5 5
v -5.5 3 6
v -5.5 3 5
v -5.5 4 6
v -5.5 4 5
v -5.5 8 7
v -5.5 8 5
v -5.5 10 7
v -5.5 10 6
v -5.5 11 6
v -5.5 11 5
v -2.5 3 7
v -2.5 3 6
v -2.5 3 5
v -2.5 5 7
v -2.5 5 5
v -1.5 2 7
v -1.5 2 6
v -1.5 3 7
v -1.5 3 6
v -1.5 5 7
v -1.5 5 5
v -1.5 6 7
v -1.5 6 5
v 2.5 8 7
v 2.5 8 5
v 2.5 10 7
v 2.5 10 6
v 2.5 10 5
v 2.5 11 6
v 2.5 11 5
v 4.5 3 6
v 4.5 3 5
v 4.5 5 6
v 4.5 5 5
v 7.5 0 7
v 7.5 0 -7
v 7.5 14 7
v 7.5 14 -7
v -7.5 0 7
v -7.5 14 7
v -5.5 8 7
v -5.5 10 7
v -5.5 11 7
v -5.5 12 7
v -2.5 3 7
v -2.5 5 7
v -2.5 8 7
v -2.5 10 7
v -2.5 11 7
v -2.5 12 7
v -1.5 2 7
v -1.5 3 7
v -1.5 5 7
v -1.5 6 7
v -1.5 10 7
v -1.5 11 7
v 1.5 2 7
v 1.5 3 7
v 1.5 5 7
v 1.5 6 7
v 2.5 3 7
v 2.5 5 7
v 2.5 8 7
v 2.5 10 7
v 2.5 11 7
v 2.5 12 7
v 5.5 8 7
v 5.5 10 7
v 5.5 11 7
v 5.5 12 7
v 6.5 10 7
v 6.5 11 7
v 7.5 0 7
v 7.5 14 7
v -6.5 2 5
v -6.5 3 5
v -6.5 4 5
v -6.5 5 5
v -5.5 3 5
v -5.5 4 5
v -5.5 8 5
v -5.5 11 5
v -4.5 3 5
v -4.5 5 5
v -4.5 8 5
v -4.5 10 5
v -2.5 3 5
v -2.5 5 5
v -2.5 8 5
v -2.5 10 5
v -2.5 11 5
v -1.5 5 5
v -1.5 6 5
v 1.5 5 5
v 1.5 6 5
v 2.5 3 5
v 2.5 5 5
v 2.5 8 5
v 2.5 10 5
v 2.5 11 5
v 4.5 3 5
v 4.5 5 5
v 4.5 8 5
v 4.5 10 5
v 5.5 8 5
v 5.5 10 5
v 5.5 11 5
v 6.5 2 5
v 6.5 5 5
v -6.5 2 6
v -6.5 3 6
v -6.5 4 6
v -6.5 5 6
v -5.5 3 6
v -5.5 4 6
v -5.5 10 6
v -5.5 11 6
v -4.5 3 6
v -4.5 5 6
v -2.5 3 6
v -2.5 10 6
v -2.5 11 6
v -1.5 2 6
v -1.5 3 6
v 1.5 2 6
v 1.5 3 6
v 2.5 3 6
v 2.5 10 6
v 2.5 11 6
v 4.5 3 6
v 4.5 5 6
v 5.5 10 6
v 5.5 11 6
v 6.5 2 6
v 6.5 5 6
v -7.5 0 -7
v -7.5 14 -7
v 7.5 0 -7
v 7.5 14 -7
v -7.5 0 7
v 7.5 0 7
v -7.5 0 -7
v 7.5 0 -7
v -6.5 3 6
v -5.5 3 6
v -4.5 3 6
v -2.5 3 6
v 2.5 3 6
v 4.5 3 6
v -6.5 3 5
v -5.5 3 5
v -4.5 3 5
v -2.5 3 5
v 2.5 3 5
v 4.5 3 5
v -2.5 5 7
v -1.5 5 7
v 1.5 5 7
v 2.5 5 7
v -6.5 5 6
v -4.5 5 6
v 4.5 5 6
v 6.5 5 6
v -6.5 5 5
v -4.5 5 5
v -2.5 5 5
v -1.5 5 5
v 1.5 5 5
v 2.5 5 5
v 4.5 5 5
v 6.5 5 5
v -1.5 6 7
v 1.5 6 7
v -1.5 6 5
v 1.5 6 5
v -5.5 10 7
v -2.5 10 7
v 2.5 10 7
v 5.5 10 7
v -5.5 10 6
v -2.5 10 6
v 2.5 10 6
v 5.5 10 6
v -5.5 11 6
v -2.5 11 6
v 2.5 11 6
v 5.5 11 6
v -5.5 11 5
v -2.5 11 5
v 2.5 11 5
v 5.5 11 5
v -1.5 2 7
v 1.5 2 7
v -6.5 2 6
v -1.5 2 6
v 1.5 2 6
v 6.5 2 6
v -6.5 2 5
v 6.5 2 5
v -2.5 3 7
v -1.5 3 7
v 1.5 3 7
v 2.5 3 7
v -2.5 3 6
v -1.5 3 6
v 1.5 3 6
v 2.5 3 6
v -6.5 4 6
v -5.5 4 6
v -6.5 4 5
v -5.5 4 5
v -5.5 8 7
v -2.5 8 7
v 2.5 8 7
v 5.5 8 7
v -5.5 8 5
v -4.5 8 5
v -2.5 8 5
v 2.5 8 5
v 4.5 8 5
v 5.5 8 5
v -7.5 14 7
v 7.5 14 7
v -7.5 14 -7
v 7.5 14 -7

# faces
f 3/1/1 2/1/1 1/1/1
f 4/1/1 2/1/1 3/1/1
f 7/1/1 6/1/1 5/1/1
f 8/1/1 6/1/1 7/1/1
f 11/1/1 10/1/1 9/1/1
f 12/1/1 10/1/1 11/1/1
f 13/1/1 10/1/1 12/1/1
f 14/4/1 13/4/1 12/4/1
f 15/4/1 13/4/1 14/4/1
f 18/1/1 17/1/1 16/1/1
f 19/1/1 17/1/1 18/1/1
f 22/1/1 21/1/1 20/1/1
f 23/1/1 21/1/1 22/1/1
f 27/1/1 25/1/1 24/1/1
f 27/1/1 26/1/1 25/1/1
f 28/1/1 26/1/1 27/1/1
f 31/1/1 30/1/1 29/1/1
f 32/1/1 30/1/1 31/1/1
f 33/1/1 30/1/1 32/1/1
f 34/4/1 33/4/1 32/4/1
f 35/4/1 33/4/1 34/4/1
f 38/1/1 37/1/1 36/1/1
f 39/1/1 37/1/1 38/1/1
f 40/1/2 41/1/2 42/1/2
f 42/1/2 41/1/2 43/1/2
f 44/1/2 45/1/2 46/1/2
f 46/1/2 45/1/2 47/1/2
f 48/1/2 49/1/2 50/1/2
f 50/1/2 49/1/2 51/1/2
f 52/1/2 53/1/2 54/1/2
f 54/1/2 53/1/2 55/1/2
f 55/1/2 53/1/2 56/1/2
f 56/1/2 53/1/2 57/1/2
f 58/1/2 59/1/2 61/1/2
f 59/1/2 60/1/2 61/1/2
f 61/1/2 60/1/2 62/1/2
f 63/1/2 64/1/2 65/1/2
f 65/1/2 64/1/2 66/1/2
f 67/1/2 68/1/2 69/1/2
f 69/1/2 68/1/2 70/1/2
f 71/1/2 72/1/2 73/1/2
f 73/1/2 72/1/2 74/1/2
f 74/1/2 72/1/2 75/1/2
f 74/1/2 75/1/2 76/1/2
f 76/1/2 75/1/2 77/1/2
f 78/1/2 79/1/2 80/1/2
f 80/1/2 79/1/2 81/1/2
f 82/1/2 83/1/2 84/1/2
f 84/1/2 83/1/2 85/1/2
f 88/1/3 87/1/3 86/1/3
f 89/1/3 87/1/3 88/1/3
f 90/1/3 87/1/3 89/1/3
f 91/1/3 87/1/3 90/1/3
f 92/1/3 88/1/3 86/1/3
f 93/1/3 88/1/3 92/1/3
f 94/1/3 88/1/3 93/1/3
f 95/1/3 90/1/3 89/1/3
f 96/4/3 91/4/3 90/4/3
f 96/1/3 90/1/3 95/1/3
f 97/1/3 87/1/3 91/1/3
f 97/4/3 91/4/3 96/4/3
f 98/1/3 92/1/3 86/1/3
f 99/1/3 92/1/3 98/1/3
f 100/1/3 95/1/3 94/1/3
f 100/1/3 94/1/3 93/1/3
f 101/1/3 95/1/3 100/1/3
f 102/4/3 96/4/3 95/4/3
f 102/1/3 95/1/3 101/1/3
f 103/1/3 97/1/3 96/1/3
f 103/4/3 96/4/3 102/4/3
f 104/1/3 98/1/3 86/1/3
f 107/1/3 103/1/3 102/1/3
f 107/1/3 102/1/3 101/1/3
f 108/1/3 105/1/3 104/1/3
f 109/1/3 107/1/3 106/1/3
f 110/1/3 103/1/3 107/1/3
f 110/1/3 107/1/3 109/1/3
f 111/1/3 103/1/3 110/1/3
f 112/1/3 97/1/3 103/1/3
f 112/1/3 103/1/3 111/1/3
f 113/1/3 87/1/3 97/1/3
f 113/1/3 97/1/3 112/1/3
f 114/1/3 109/1/3 108/1/3
f 114/1/3 110/1/3 109/1/3
f 115/1/3 112/1/3 111/1/3
f 116/4/3 113/4/3 112/4/3
f 116/1/3 112/1/3 115/1/3
f 117/1/3 87/1/3 113/1/3
f 117/4/3 113/4/3 116/4/3
f 118/4/3 116/4/3 115/4/3
f 118/1/3 115/1/3 114/1/3
f 119/1/3 117/1/3 116/1/3
f 119/4/3 116/4/3 118/4/3
f 120/1/3 108/1/3 104/1/3
f 120/1/3 114/1/3 108/1/3
f 120/1/3 119/1/3 118/1/3
f 120/1/3 104/1/3 86/1/3
f 120/1/3 118/1/3 114/1/3
f 121/1/3 87/1/3 117/1/3
f 121/1/3 119/1/3 120/1/3
f 121/1/3 117/1/3 119/1/3
f 126/4/3 123/4/3 122/4/3
f 127/4/3 125/4/3 124/4/3
f 130/4/3 126/4/3 122/4/3
f 130/4/3 127/4/3 126/4/3
f 131/4/3 125/4/3 127/4/3
f 131/4/3 127/4/3 130/4/3
f 132/3/3 129/3/3 128/3/3
f 133/3/3 129/3/3 132/3/3
f 134/4/3 130/4/3 122/4/3
f 136/2/3 133/2/3 132/2/3
f 137/3/3 129/3/3 133/3/3
f 137/2/3 133/2/3 136/2/3
f 138/3/3 129/3/3 137/3/3
f 139/4/3 135/4/3 134/4/3
f 141/4/3 139/4/3 134/4/3
f 141/4/3 140/4/3 139/4/3
f 142/4/3 140/4/3 141/4/3
f 143/4/3 134/4/3 122/4/3
f 143/4/3 141/4/3 134/4/3
f 144/4/3 141/4/3 143/4/3
f 148/4/3 143/4/3 122/4/3
f 150/2/3 146/2/3 145/2/3
f 151/3/3 147/3/3 146/3/3
f 151/2/3 146/2/3 150/2/3
f 152/3/3 151/3/3 150/3/3
f 153/3/3 147/3/3 151/3/3
f 153/3/3 151/3/3 152/3/3
f 154/3/3 147/3/3 153/3/3
f 155/4/3 149/4/3 148/4/3
f 155/4/3 148/4/3 122/4/3
f 156/4/3 149/4/3 155/4/3
f 157/1/4 158/1/4 161/1/4
f 159/1/4 160/1/4 162/1/4
f 157/1/4 161/1/4 165/1/4
f 161/1/4 162/1/4 165/1/4
f 162/1/4 160/1/4 166/1/4
f 165/1/4 162/1/4 166/1/4
f 157/1/4 165/1/4 167/1/4
f 163/1/4 164/1/4 168/1/4
f 168/1/4 164/1/4 169/1/4
f 157/1/4 167/1/4 170/1/4
f 170/1/4 167/1/4 171/1/4
f 172/1/4 173/1/4 174/1/4
f 172/1/4 174/1/4 177/1/4
f 175/1/4 176/1/4 179/1/4
f 179/1/4 176/1/4 180/1/4
f 177/1/4 178/1/4 181/1/4
f 172/1/4 177/1/4 181/1/4
f 181/1/4 178/1/4 182/1/4
f 183/1/4 184/1/4 185/1/4
f 185/1/4 184/1/4 186/1/4
f 189/1/5 188/1/5 187/1/5
f 190/1/5 188/1/5 189/1/5
f 197/1/5 192/1/5 191/1/5
f 198/1/5 192/1/5 197/1/5
f 199/1/5 194/1/5 193/1/5
f 200/1/5 194/1/5 199/1/5
f 201/1/5 196/1/5 195/1/5
f 202/1/5 196/1/5 201/1/5
f 211/4/5 208/4/5 207/4/5
f 212/4/5 208/4/5 211/4/5
f 213/1/5 204/1/5 203/1/5
f 214/1/5 204/1/5 213/1/5
f 215/1/5 206/1/5 205/1/5
f 216/1/5 206/1/5 215/1/5
f 217/4/5 210/4/5 209/4/5
f 218/4/5 210/4/5 217/4/5
f 221/1/5 220/1/5 219/1/5
f 222/1/5 220/1/5 221/1/5
f 227/1/5 224/1/5 223/1/5
f 228/1/5 224/1/5 227/1/5
f 229/1/5 226/1/5 225/1/5
f 230/1/5 226/1/5 229/1/5
f 235/4/5 232/4/5 231/4/5
f 236/4/5 232/4/5 235/4/5
f 237/4/5 234/4/5 233/4/5
f 238/4/5 234/4/5 237/4/5
f 239/1/6 240/1/6 242/1/6
f 242/1/6 240/1/6 243/1/6
f 241/1/6 242/1/6 245/1/6
f 243/1/6 244/1/6 245/1/6
f 242/1/6 243/1/6 245/1/6
f 245/1/6 244/1/6 246/1/6
f 247/1/6 248/1/6 251/1/6
f 251/1/6 248/1/6 252/1/6
f 249/1/6 250/1/6 253/1/6
f 253/1/6 250/1/6 254/1/6
f 255/1/6 256/1/6 257/1/6
f 257/1/6 256/1/6 258/1/6
f 259/1/6 260/1/6 263/1/6
f 263/1/6 260/1/6 264/1/6
f 264/1/6 260/1/6 265/1/6
f 261/1/6 262/1/6 266/1/6
f 266/1/6 262/1/6 267/1/6
f 267/1/6 262/1/6 268/1/6
f 269/1/6 270/1/6 271/1/6
f 271/1/6 270/1/6 272/1/6
